<mxfile host="app.diagrams.net" modified="2021-05-12T09:01:54.866Z" agent="5.0 (Windows NT 10.0; WOW64) AppleWebKit/537.36 (KHTML, like Gecko) Chrome/84.0.4147.89 Safari/537.36 SLBrowser/7.0.0.4071 SLBChan/3" etag="yZgmtMM_UYWJtbrS042q" version="14.6.12" type="github">
  <diagram id="V-LYUt6-tkYFiRCC0l9f" name="Page-1">
    <mxGraphModel dx="2062" dy="1125" grid="1" gridSize="10" guides="1" tooltips="1" connect="1" arrows="1" fold="1" page="1" pageScale="1" pageWidth="827" pageHeight="1169" math="0" shadow="0">
      <root>
        <mxCell id="0" />
        <mxCell id="1" parent="0" />
        <mxCell id="E3-DCWuAJKOkuyqkyLfo-2" value="MODE" style="rounded=0;whiteSpace=wrap;html=1;" parent="1" vertex="1">
          <mxGeometry x="94" y="170" width="60" height="20" as="geometry" />
        </mxCell>
        <mxCell id="E3-DCWuAJKOkuyqkyLfo-3" value="PPN" style="rounded=0;whiteSpace=wrap;html=1;" parent="1" vertex="1">
          <mxGeometry x="214" y="170" width="200" height="20" as="geometry" />
        </mxCell>
        <mxCell id="E3-DCWuAJKOkuyqkyLfo-4" value="Satp" style="text;html=1;strokeColor=none;fillColor=none;align=center;verticalAlign=middle;whiteSpace=wrap;rounded=0;" parent="1" vertex="1">
          <mxGeometry x="44" y="180" width="40" height="20" as="geometry" />
        </mxCell>
        <mxCell id="E3-DCWuAJKOkuyqkyLfo-5" value="ASID" style="rounded=0;whiteSpace=wrap;html=1;" parent="1" vertex="1">
          <mxGeometry x="154" y="170" width="60" height="20" as="geometry" />
        </mxCell>
        <mxCell id="E3-DCWuAJKOkuyqkyLfo-6" value="4" style="text;html=1;strokeColor=none;fillColor=none;align=center;verticalAlign=middle;whiteSpace=wrap;rounded=0;" parent="1" vertex="1">
          <mxGeometry x="104" y="150" width="40" height="20" as="geometry" />
        </mxCell>
        <mxCell id="E3-DCWuAJKOkuyqkyLfo-7" value="16" style="text;html=1;strokeColor=none;fillColor=none;align=center;verticalAlign=middle;whiteSpace=wrap;rounded=0;" parent="1" vertex="1">
          <mxGeometry x="164" y="150" width="40" height="20" as="geometry" />
        </mxCell>
        <mxCell id="E3-DCWuAJKOkuyqkyLfo-8" value="44" style="text;html=1;strokeColor=none;fillColor=none;align=center;verticalAlign=middle;whiteSpace=wrap;rounded=0;" parent="1" vertex="1">
          <mxGeometry x="294" y="150" width="40" height="20" as="geometry" />
        </mxCell>
        <mxCell id="E3-DCWuAJKOkuyqkyLfo-9" value="VPN[2]" style="rounded=0;whiteSpace=wrap;html=1;" parent="1" vertex="1">
          <mxGeometry x="460" y="170" width="60" height="20" as="geometry" />
        </mxCell>
        <mxCell id="E3-DCWuAJKOkuyqkyLfo-10" value="VPN[0]" style="rounded=0;whiteSpace=wrap;html=1;" parent="1" vertex="1">
          <mxGeometry x="580" y="170" width="60" height="20" as="geometry" />
        </mxCell>
        <mxCell id="E3-DCWuAJKOkuyqkyLfo-11" value="virtual address" style="text;html=1;strokeColor=none;fillColor=none;align=center;verticalAlign=middle;whiteSpace=wrap;rounded=0;" parent="1" vertex="1">
          <mxGeometry x="560" y="130" width="100" height="20" as="geometry" />
        </mxCell>
        <mxCell id="E3-DCWuAJKOkuyqkyLfo-12" value="VPN[1]" style="rounded=0;whiteSpace=wrap;html=1;" parent="1" vertex="1">
          <mxGeometry x="520" y="170" width="60" height="20" as="geometry" />
        </mxCell>
        <mxCell id="E3-DCWuAJKOkuyqkyLfo-13" value="9" style="text;html=1;strokeColor=none;fillColor=none;align=center;verticalAlign=middle;whiteSpace=wrap;rounded=0;" parent="1" vertex="1">
          <mxGeometry x="474" y="150" width="40" height="20" as="geometry" />
        </mxCell>
        <mxCell id="E3-DCWuAJKOkuyqkyLfo-14" value="9" style="text;html=1;strokeColor=none;fillColor=none;align=center;verticalAlign=middle;whiteSpace=wrap;rounded=0;" parent="1" vertex="1">
          <mxGeometry x="530" y="150" width="40" height="20" as="geometry" />
        </mxCell>
        <mxCell id="E3-DCWuAJKOkuyqkyLfo-15" value="9" style="text;html=1;strokeColor=none;fillColor=none;align=center;verticalAlign=middle;whiteSpace=wrap;rounded=0;" parent="1" vertex="1">
          <mxGeometry x="590" y="150" width="40" height="20" as="geometry" />
        </mxCell>
        <mxCell id="E3-DCWuAJKOkuyqkyLfo-16" value="page offset" style="rounded=0;whiteSpace=wrap;html=1;" parent="1" vertex="1">
          <mxGeometry x="640" y="170" width="100" height="20" as="geometry" />
        </mxCell>
        <mxCell id="E3-DCWuAJKOkuyqkyLfo-17" value="12" style="text;html=1;strokeColor=none;fillColor=none;align=center;verticalAlign=middle;whiteSpace=wrap;rounded=0;" parent="1" vertex="1">
          <mxGeometry x="670" y="150" width="40" height="20" as="geometry" />
        </mxCell>
        <mxCell id="E3-DCWuAJKOkuyqkyLfo-22" value="RSW" style="rounded=0;whiteSpace=wrap;html=1;" parent="1" vertex="1">
          <mxGeometry x="470" y="380" width="40" height="20" as="geometry" />
        </mxCell>
        <mxCell id="E3-DCWuAJKOkuyqkyLfo-23" value="PPN[0]" style="rounded=0;whiteSpace=wrap;html=1;" parent="1" vertex="1">
          <mxGeometry x="410" y="380" width="60" height="20" as="geometry" />
        </mxCell>
        <mxCell id="E3-DCWuAJKOkuyqkyLfo-26" value="9" style="text;html=1;strokeColor=none;fillColor=none;align=center;verticalAlign=middle;whiteSpace=wrap;rounded=0;" parent="1" vertex="1">
          <mxGeometry x="420" y="360" width="40" height="20" as="geometry" />
        </mxCell>
        <mxCell id="E3-DCWuAJKOkuyqkyLfo-27" value="D" style="rounded=0;whiteSpace=wrap;html=1;" parent="1" vertex="1">
          <mxGeometry x="510" y="380" width="30" height="20" as="geometry" />
        </mxCell>
        <mxCell id="E3-DCWuAJKOkuyqkyLfo-28" value="1" style="text;html=1;strokeColor=none;fillColor=none;align=center;verticalAlign=middle;whiteSpace=wrap;rounded=0;" parent="1" vertex="1">
          <mxGeometry x="655" y="360" width="40" height="20" as="geometry" />
        </mxCell>
        <mxCell id="E3-DCWuAJKOkuyqkyLfo-29" value="A" style="rounded=0;whiteSpace=wrap;html=1;" parent="1" vertex="1">
          <mxGeometry x="540" y="380" width="30" height="20" as="geometry" />
        </mxCell>
        <mxCell id="E3-DCWuAJKOkuyqkyLfo-30" value="G" style="rounded=0;whiteSpace=wrap;html=1;" parent="1" vertex="1">
          <mxGeometry x="570" y="380" width="30" height="20" as="geometry" />
        </mxCell>
        <mxCell id="E3-DCWuAJKOkuyqkyLfo-31" value="U" style="rounded=0;whiteSpace=wrap;html=1;" parent="1" vertex="1">
          <mxGeometry x="600" y="380" width="30" height="20" as="geometry" />
        </mxCell>
        <mxCell id="E3-DCWuAJKOkuyqkyLfo-32" value="X" style="rounded=0;whiteSpace=wrap;html=1;" parent="1" vertex="1">
          <mxGeometry x="630" y="380" width="30" height="20" as="geometry" />
        </mxCell>
        <mxCell id="E3-DCWuAJKOkuyqkyLfo-33" value="R" style="rounded=0;whiteSpace=wrap;html=1;" parent="1" vertex="1">
          <mxGeometry x="660" y="380" width="30" height="20" as="geometry" />
        </mxCell>
        <mxCell id="E3-DCWuAJKOkuyqkyLfo-34" value="V" style="rounded=0;whiteSpace=wrap;html=1;" parent="1" vertex="1">
          <mxGeometry x="690" y="380" width="30" height="20" as="geometry" />
        </mxCell>
        <mxCell id="E3-DCWuAJKOkuyqkyLfo-36" value="1" style="text;html=1;strokeColor=none;fillColor=none;align=center;verticalAlign=middle;whiteSpace=wrap;rounded=0;" parent="1" vertex="1">
          <mxGeometry x="685" y="360" width="40" height="20" as="geometry" />
        </mxCell>
        <mxCell id="E3-DCWuAJKOkuyqkyLfo-37" value="1" style="text;html=1;strokeColor=none;fillColor=none;align=center;verticalAlign=middle;whiteSpace=wrap;rounded=0;" parent="1" vertex="1">
          <mxGeometry x="625" y="360" width="40" height="20" as="geometry" />
        </mxCell>
        <mxCell id="E3-DCWuAJKOkuyqkyLfo-38" value="1" style="text;html=1;strokeColor=none;fillColor=none;align=center;verticalAlign=middle;whiteSpace=wrap;rounded=0;" parent="1" vertex="1">
          <mxGeometry x="595" y="360" width="40" height="20" as="geometry" />
        </mxCell>
        <mxCell id="E3-DCWuAJKOkuyqkyLfo-39" value="1" style="text;html=1;strokeColor=none;fillColor=none;align=center;verticalAlign=middle;whiteSpace=wrap;rounded=0;" parent="1" vertex="1">
          <mxGeometry x="565" y="360" width="40" height="20" as="geometry" />
        </mxCell>
        <mxCell id="E3-DCWuAJKOkuyqkyLfo-40" value="1" style="text;html=1;strokeColor=none;fillColor=none;align=center;verticalAlign=middle;whiteSpace=wrap;rounded=0;" parent="1" vertex="1">
          <mxGeometry x="535" y="360" width="40" height="20" as="geometry" />
        </mxCell>
        <mxCell id="E3-DCWuAJKOkuyqkyLfo-41" value="1" style="text;html=1;strokeColor=none;fillColor=none;align=center;verticalAlign=middle;whiteSpace=wrap;rounded=0;" parent="1" vertex="1">
          <mxGeometry x="505" y="360" width="40" height="20" as="geometry" />
        </mxCell>
        <mxCell id="E3-DCWuAJKOkuyqkyLfo-42" value="2" style="text;html=1;strokeColor=none;fillColor=none;align=center;verticalAlign=middle;whiteSpace=wrap;rounded=0;" parent="1" vertex="1">
          <mxGeometry x="470" y="360" width="40" height="20" as="geometry" />
        </mxCell>
        <mxCell id="E3-DCWuAJKOkuyqkyLfo-44" value="PPN[1]" style="rounded=0;whiteSpace=wrap;html=1;" parent="1" vertex="1">
          <mxGeometry x="350" y="380" width="60" height="20" as="geometry" />
        </mxCell>
        <mxCell id="E3-DCWuAJKOkuyqkyLfo-45" value="9" style="text;html=1;strokeColor=none;fillColor=none;align=center;verticalAlign=middle;whiteSpace=wrap;rounded=0;" parent="1" vertex="1">
          <mxGeometry x="360" y="360" width="40" height="20" as="geometry" />
        </mxCell>
        <mxCell id="E3-DCWuAJKOkuyqkyLfo-46" value="PPN[2]" style="rounded=0;whiteSpace=wrap;html=1;" parent="1" vertex="1">
          <mxGeometry x="290" y="380" width="60" height="20" as="geometry" />
        </mxCell>
        <mxCell id="E3-DCWuAJKOkuyqkyLfo-47" value="26" style="text;html=1;strokeColor=none;fillColor=none;align=center;verticalAlign=middle;whiteSpace=wrap;rounded=0;" parent="1" vertex="1">
          <mxGeometry x="300" y="360" width="40" height="20" as="geometry" />
        </mxCell>
        <mxCell id="E3-DCWuAJKOkuyqkyLfo-48" value="Reserved" style="rounded=0;whiteSpace=wrap;html=1;" parent="1" vertex="1">
          <mxGeometry x="230" y="380" width="60" height="20" as="geometry" />
        </mxCell>
        <mxCell id="E3-DCWuAJKOkuyqkyLfo-49" value="8" style="text;html=1;strokeColor=none;fillColor=none;align=center;verticalAlign=middle;whiteSpace=wrap;rounded=0;" parent="1" vertex="1">
          <mxGeometry x="240" y="360" width="40" height="20" as="geometry" />
        </mxCell>
        <mxCell id="E3-DCWuAJKOkuyqkyLfo-54" value="1" style="text;html=1;strokeColor=none;fillColor=none;align=center;verticalAlign=middle;whiteSpace=wrap;rounded=0;" parent="1" vertex="1">
          <mxGeometry x="164" y="360" width="40" height="20" as="geometry" />
        </mxCell>
        <mxCell id="E3-DCWuAJKOkuyqkyLfo-55" value="C" style="rounded=0;whiteSpace=wrap;html=1;" parent="1" vertex="1">
          <mxGeometry x="169" y="380" width="30" height="20" as="geometry" />
        </mxCell>
        <mxCell id="E3-DCWuAJKOkuyqkyLfo-56" value="N" style="rounded=0;whiteSpace=wrap;html=1;" parent="1" vertex="1">
          <mxGeometry x="199" y="380" width="31" height="20" as="geometry" />
        </mxCell>
        <mxCell id="E3-DCWuAJKOkuyqkyLfo-57" value="1" style="text;html=1;strokeColor=none;fillColor=none;align=center;verticalAlign=middle;whiteSpace=wrap;rounded=0;" parent="1" vertex="1">
          <mxGeometry x="194" y="360" width="40" height="20" as="geometry" />
        </mxCell>
        <mxCell id="E3-DCWuAJKOkuyqkyLfo-170" value="RSW" style="rounded=0;whiteSpace=wrap;html=1;" parent="1" vertex="1">
          <mxGeometry x="470" y="270" width="40" height="20" as="geometry" />
        </mxCell>
        <mxCell id="E3-DCWuAJKOkuyqkyLfo-171" value="PPN[0]" style="rounded=0;whiteSpace=wrap;html=1;" parent="1" vertex="1">
          <mxGeometry x="410" y="270" width="60" height="20" as="geometry" />
        </mxCell>
        <mxCell id="E3-DCWuAJKOkuyqkyLfo-172" value="9" style="text;html=1;strokeColor=none;fillColor=none;align=center;verticalAlign=middle;whiteSpace=wrap;rounded=0;" parent="1" vertex="1">
          <mxGeometry x="420" y="250" width="40" height="20" as="geometry" />
        </mxCell>
        <mxCell id="E3-DCWuAJKOkuyqkyLfo-173" value="D" style="rounded=0;whiteSpace=wrap;html=1;" parent="1" vertex="1">
          <mxGeometry x="510" y="270" width="30" height="20" as="geometry" />
        </mxCell>
        <mxCell id="E3-DCWuAJKOkuyqkyLfo-174" value="1" style="text;html=1;strokeColor=none;fillColor=none;align=center;verticalAlign=middle;whiteSpace=wrap;rounded=0;" parent="1" vertex="1">
          <mxGeometry x="655" y="250" width="40" height="20" as="geometry" />
        </mxCell>
        <mxCell id="E3-DCWuAJKOkuyqkyLfo-175" value="A" style="rounded=0;whiteSpace=wrap;html=1;" parent="1" vertex="1">
          <mxGeometry x="540" y="270" width="30" height="20" as="geometry" />
        </mxCell>
        <mxCell id="E3-DCWuAJKOkuyqkyLfo-176" value="G" style="rounded=0;whiteSpace=wrap;html=1;" parent="1" vertex="1">
          <mxGeometry x="570" y="270" width="30" height="20" as="geometry" />
        </mxCell>
        <mxCell id="E3-DCWuAJKOkuyqkyLfo-177" value="U" style="rounded=0;whiteSpace=wrap;html=1;" parent="1" vertex="1">
          <mxGeometry x="600" y="270" width="30" height="20" as="geometry" />
        </mxCell>
        <mxCell id="E3-DCWuAJKOkuyqkyLfo-178" value="X" style="rounded=0;whiteSpace=wrap;html=1;" parent="1" vertex="1">
          <mxGeometry x="630" y="270" width="30" height="20" as="geometry" />
        </mxCell>
        <mxCell id="E3-DCWuAJKOkuyqkyLfo-179" value="R" style="rounded=0;whiteSpace=wrap;html=1;" parent="1" vertex="1">
          <mxGeometry x="660" y="270" width="30" height="20" as="geometry" />
        </mxCell>
        <mxCell id="E3-DCWuAJKOkuyqkyLfo-180" value="V" style="rounded=0;whiteSpace=wrap;html=1;" parent="1" vertex="1">
          <mxGeometry x="690" y="270" width="30" height="20" as="geometry" />
        </mxCell>
        <mxCell id="E3-DCWuAJKOkuyqkyLfo-181" value="1" style="text;html=1;strokeColor=none;fillColor=none;align=center;verticalAlign=middle;whiteSpace=wrap;rounded=0;" parent="1" vertex="1">
          <mxGeometry x="685" y="250" width="40" height="20" as="geometry" />
        </mxCell>
        <mxCell id="E3-DCWuAJKOkuyqkyLfo-182" value="1" style="text;html=1;strokeColor=none;fillColor=none;align=center;verticalAlign=middle;whiteSpace=wrap;rounded=0;" parent="1" vertex="1">
          <mxGeometry x="625" y="250" width="40" height="20" as="geometry" />
        </mxCell>
        <mxCell id="E3-DCWuAJKOkuyqkyLfo-183" value="1" style="text;html=1;strokeColor=none;fillColor=none;align=center;verticalAlign=middle;whiteSpace=wrap;rounded=0;" parent="1" vertex="1">
          <mxGeometry x="595" y="250" width="40" height="20" as="geometry" />
        </mxCell>
        <mxCell id="E3-DCWuAJKOkuyqkyLfo-184" value="1" style="text;html=1;strokeColor=none;fillColor=none;align=center;verticalAlign=middle;whiteSpace=wrap;rounded=0;" parent="1" vertex="1">
          <mxGeometry x="565" y="250" width="40" height="20" as="geometry" />
        </mxCell>
        <mxCell id="E3-DCWuAJKOkuyqkyLfo-185" value="1" style="text;html=1;strokeColor=none;fillColor=none;align=center;verticalAlign=middle;whiteSpace=wrap;rounded=0;" parent="1" vertex="1">
          <mxGeometry x="535" y="250" width="40" height="20" as="geometry" />
        </mxCell>
        <mxCell id="E3-DCWuAJKOkuyqkyLfo-186" value="1" style="text;html=1;strokeColor=none;fillColor=none;align=center;verticalAlign=middle;whiteSpace=wrap;rounded=0;" parent="1" vertex="1">
          <mxGeometry x="505" y="250" width="40" height="20" as="geometry" />
        </mxCell>
        <mxCell id="E3-DCWuAJKOkuyqkyLfo-187" value="2" style="text;html=1;strokeColor=none;fillColor=none;align=center;verticalAlign=middle;whiteSpace=wrap;rounded=0;" parent="1" vertex="1">
          <mxGeometry x="470" y="250" width="40" height="20" as="geometry" />
        </mxCell>
        <mxCell id="E3-DCWuAJKOkuyqkyLfo-188" value="PPN[1]" style="rounded=0;whiteSpace=wrap;html=1;" parent="1" vertex="1">
          <mxGeometry x="350" y="270" width="60" height="20" as="geometry" />
        </mxCell>
        <mxCell id="E3-DCWuAJKOkuyqkyLfo-189" value="9" style="text;html=1;strokeColor=none;fillColor=none;align=center;verticalAlign=middle;whiteSpace=wrap;rounded=0;" parent="1" vertex="1">
          <mxGeometry x="360" y="250" width="40" height="20" as="geometry" />
        </mxCell>
        <mxCell id="E3-DCWuAJKOkuyqkyLfo-190" value="PPN[2]" style="rounded=0;whiteSpace=wrap;html=1;" parent="1" vertex="1">
          <mxGeometry x="290" y="270" width="60" height="20" as="geometry" />
        </mxCell>
        <mxCell id="E3-DCWuAJKOkuyqkyLfo-191" value="26" style="text;html=1;strokeColor=none;fillColor=none;align=center;verticalAlign=middle;whiteSpace=wrap;rounded=0;" parent="1" vertex="1">
          <mxGeometry x="300" y="250" width="40" height="20" as="geometry" />
        </mxCell>
        <mxCell id="E3-DCWuAJKOkuyqkyLfo-192" value="Reserved" style="rounded=0;whiteSpace=wrap;html=1;" parent="1" vertex="1">
          <mxGeometry x="230" y="270" width="60" height="20" as="geometry" />
        </mxCell>
        <mxCell id="E3-DCWuAJKOkuyqkyLfo-193" value="8" style="text;html=1;strokeColor=none;fillColor=none;align=center;verticalAlign=middle;whiteSpace=wrap;rounded=0;" parent="1" vertex="1">
          <mxGeometry x="240" y="250" width="40" height="20" as="geometry" />
        </mxCell>
        <mxCell id="E3-DCWuAJKOkuyqkyLfo-194" value="1" style="text;html=1;strokeColor=none;fillColor=none;align=center;verticalAlign=middle;whiteSpace=wrap;rounded=0;" parent="1" vertex="1">
          <mxGeometry x="164" y="250" width="40" height="20" as="geometry" />
        </mxCell>
        <mxCell id="E3-DCWuAJKOkuyqkyLfo-195" value="C" style="rounded=0;whiteSpace=wrap;html=1;" parent="1" vertex="1">
          <mxGeometry x="169" y="270" width="30" height="20" as="geometry" />
        </mxCell>
        <mxCell id="E3-DCWuAJKOkuyqkyLfo-196" value="N" style="rounded=0;whiteSpace=wrap;html=1;" parent="1" vertex="1">
          <mxGeometry x="199" y="270" width="31" height="20" as="geometry" />
        </mxCell>
        <mxCell id="E3-DCWuAJKOkuyqkyLfo-197" value="1" style="text;html=1;strokeColor=none;fillColor=none;align=center;verticalAlign=middle;whiteSpace=wrap;rounded=0;" parent="1" vertex="1">
          <mxGeometry x="194" y="250" width="40" height="20" as="geometry" />
        </mxCell>
        <mxCell id="E3-DCWuAJKOkuyqkyLfo-198" value="RSW" style="rounded=0;whiteSpace=wrap;html=1;" parent="1" vertex="1">
          <mxGeometry x="470" y="487" width="40" height="20" as="geometry" />
        </mxCell>
        <mxCell id="E3-DCWuAJKOkuyqkyLfo-282" style="edgeStyle=orthogonalEdgeStyle;rounded=0;orthogonalLoop=1;jettySize=auto;html=1;" parent="1" source="E3-DCWuAJKOkuyqkyLfo-199" target="E3-DCWuAJKOkuyqkyLfo-270" edge="1">
          <mxGeometry relative="1" as="geometry" />
        </mxCell>
        <mxCell id="E3-DCWuAJKOkuyqkyLfo-199" value="PPN[0]" style="rounded=0;whiteSpace=wrap;html=1;" parent="1" vertex="1">
          <mxGeometry x="410" y="487" width="60" height="20" as="geometry" />
        </mxCell>
        <mxCell id="E3-DCWuAJKOkuyqkyLfo-200" value="9" style="text;html=1;strokeColor=none;fillColor=none;align=center;verticalAlign=middle;whiteSpace=wrap;rounded=0;" parent="1" vertex="1">
          <mxGeometry x="420" y="467" width="40" height="20" as="geometry" />
        </mxCell>
        <mxCell id="E3-DCWuAJKOkuyqkyLfo-201" value="D" style="rounded=0;whiteSpace=wrap;html=1;" parent="1" vertex="1">
          <mxGeometry x="510" y="487" width="30" height="20" as="geometry" />
        </mxCell>
        <mxCell id="E3-DCWuAJKOkuyqkyLfo-202" value="1" style="text;html=1;strokeColor=none;fillColor=none;align=center;verticalAlign=middle;whiteSpace=wrap;rounded=0;" parent="1" vertex="1">
          <mxGeometry x="655" y="467" width="40" height="20" as="geometry" />
        </mxCell>
        <mxCell id="E3-DCWuAJKOkuyqkyLfo-203" value="A" style="rounded=0;whiteSpace=wrap;html=1;" parent="1" vertex="1">
          <mxGeometry x="540" y="487" width="30" height="20" as="geometry" />
        </mxCell>
        <mxCell id="E3-DCWuAJKOkuyqkyLfo-204" value="G" style="rounded=0;whiteSpace=wrap;html=1;" parent="1" vertex="1">
          <mxGeometry x="570" y="487" width="30" height="20" as="geometry" />
        </mxCell>
        <mxCell id="E3-DCWuAJKOkuyqkyLfo-205" value="U" style="rounded=0;whiteSpace=wrap;html=1;" parent="1" vertex="1">
          <mxGeometry x="600" y="487" width="30" height="20" as="geometry" />
        </mxCell>
        <mxCell id="E3-DCWuAJKOkuyqkyLfo-206" value="X" style="rounded=0;whiteSpace=wrap;html=1;" parent="1" vertex="1">
          <mxGeometry x="630" y="487" width="30" height="20" as="geometry" />
        </mxCell>
        <mxCell id="E3-DCWuAJKOkuyqkyLfo-207" value="R" style="rounded=0;whiteSpace=wrap;html=1;" parent="1" vertex="1">
          <mxGeometry x="660" y="487" width="30" height="20" as="geometry" />
        </mxCell>
        <mxCell id="E3-DCWuAJKOkuyqkyLfo-208" value="V" style="rounded=0;whiteSpace=wrap;html=1;" parent="1" vertex="1">
          <mxGeometry x="690" y="487" width="30" height="20" as="geometry" />
        </mxCell>
        <mxCell id="E3-DCWuAJKOkuyqkyLfo-209" value="1" style="text;html=1;strokeColor=none;fillColor=none;align=center;verticalAlign=middle;whiteSpace=wrap;rounded=0;" parent="1" vertex="1">
          <mxGeometry x="685" y="467" width="40" height="20" as="geometry" />
        </mxCell>
        <mxCell id="E3-DCWuAJKOkuyqkyLfo-210" value="1" style="text;html=1;strokeColor=none;fillColor=none;align=center;verticalAlign=middle;whiteSpace=wrap;rounded=0;" parent="1" vertex="1">
          <mxGeometry x="625" y="467" width="40" height="20" as="geometry" />
        </mxCell>
        <mxCell id="E3-DCWuAJKOkuyqkyLfo-211" value="1" style="text;html=1;strokeColor=none;fillColor=none;align=center;verticalAlign=middle;whiteSpace=wrap;rounded=0;" parent="1" vertex="1">
          <mxGeometry x="595" y="467" width="40" height="20" as="geometry" />
        </mxCell>
        <mxCell id="E3-DCWuAJKOkuyqkyLfo-212" value="1" style="text;html=1;strokeColor=none;fillColor=none;align=center;verticalAlign=middle;whiteSpace=wrap;rounded=0;" parent="1" vertex="1">
          <mxGeometry x="565" y="467" width="40" height="20" as="geometry" />
        </mxCell>
        <mxCell id="E3-DCWuAJKOkuyqkyLfo-213" value="1" style="text;html=1;strokeColor=none;fillColor=none;align=center;verticalAlign=middle;whiteSpace=wrap;rounded=0;" parent="1" vertex="1">
          <mxGeometry x="535" y="467" width="40" height="20" as="geometry" />
        </mxCell>
        <mxCell id="E3-DCWuAJKOkuyqkyLfo-214" value="1" style="text;html=1;strokeColor=none;fillColor=none;align=center;verticalAlign=middle;whiteSpace=wrap;rounded=0;" parent="1" vertex="1">
          <mxGeometry x="505" y="467" width="40" height="20" as="geometry" />
        </mxCell>
        <mxCell id="E3-DCWuAJKOkuyqkyLfo-215" value="2" style="text;html=1;strokeColor=none;fillColor=none;align=center;verticalAlign=middle;whiteSpace=wrap;rounded=0;" parent="1" vertex="1">
          <mxGeometry x="470" y="467" width="40" height="20" as="geometry" />
        </mxCell>
        <mxCell id="E3-DCWuAJKOkuyqkyLfo-281" style="edgeStyle=orthogonalEdgeStyle;rounded=0;orthogonalLoop=1;jettySize=auto;html=1;entryX=0.5;entryY=0;entryDx=0;entryDy=0;" parent="1" source="E3-DCWuAJKOkuyqkyLfo-216" target="E3-DCWuAJKOkuyqkyLfo-273" edge="1">
          <mxGeometry relative="1" as="geometry" />
        </mxCell>
        <mxCell id="E3-DCWuAJKOkuyqkyLfo-216" value="PPN[1]" style="rounded=0;whiteSpace=wrap;html=1;" parent="1" vertex="1">
          <mxGeometry x="350" y="487" width="60" height="20" as="geometry" />
        </mxCell>
        <mxCell id="E3-DCWuAJKOkuyqkyLfo-217" value="9" style="text;html=1;strokeColor=none;fillColor=none;align=center;verticalAlign=middle;whiteSpace=wrap;rounded=0;" parent="1" vertex="1">
          <mxGeometry x="360" y="467" width="40" height="20" as="geometry" />
        </mxCell>
        <mxCell id="E3-DCWuAJKOkuyqkyLfo-280" style="edgeStyle=orthogonalEdgeStyle;rounded=0;orthogonalLoop=1;jettySize=auto;html=1;entryX=0.5;entryY=0;entryDx=0;entryDy=0;" parent="1" source="E3-DCWuAJKOkuyqkyLfo-218" target="E3-DCWuAJKOkuyqkyLfo-275" edge="1">
          <mxGeometry relative="1" as="geometry" />
        </mxCell>
        <mxCell id="E3-DCWuAJKOkuyqkyLfo-218" value="PPN[2]" style="rounded=0;whiteSpace=wrap;html=1;" parent="1" vertex="1">
          <mxGeometry x="290" y="487" width="60" height="20" as="geometry" />
        </mxCell>
        <mxCell id="E3-DCWuAJKOkuyqkyLfo-219" value="26" style="text;html=1;strokeColor=none;fillColor=none;align=center;verticalAlign=middle;whiteSpace=wrap;rounded=0;" parent="1" vertex="1">
          <mxGeometry x="300" y="467" width="40" height="20" as="geometry" />
        </mxCell>
        <mxCell id="E3-DCWuAJKOkuyqkyLfo-220" value="Reserved" style="rounded=0;whiteSpace=wrap;html=1;" parent="1" vertex="1">
          <mxGeometry x="230" y="487" width="60" height="20" as="geometry" />
        </mxCell>
        <mxCell id="E3-DCWuAJKOkuyqkyLfo-221" value="8" style="text;html=1;strokeColor=none;fillColor=none;align=center;verticalAlign=middle;whiteSpace=wrap;rounded=0;" parent="1" vertex="1">
          <mxGeometry x="240" y="467" width="40" height="20" as="geometry" />
        </mxCell>
        <mxCell id="E3-DCWuAJKOkuyqkyLfo-222" value="1" style="text;html=1;strokeColor=none;fillColor=none;align=center;verticalAlign=middle;whiteSpace=wrap;rounded=0;" parent="1" vertex="1">
          <mxGeometry x="164" y="467" width="40" height="20" as="geometry" />
        </mxCell>
        <mxCell id="E3-DCWuAJKOkuyqkyLfo-223" value="C" style="rounded=0;whiteSpace=wrap;html=1;" parent="1" vertex="1">
          <mxGeometry x="169" y="487" width="30" height="20" as="geometry" />
        </mxCell>
        <mxCell id="E3-DCWuAJKOkuyqkyLfo-224" value="N" style="rounded=0;whiteSpace=wrap;html=1;" parent="1" vertex="1">
          <mxGeometry x="199" y="487" width="31" height="20" as="geometry" />
        </mxCell>
        <mxCell id="E3-DCWuAJKOkuyqkyLfo-225" value="1" style="text;html=1;strokeColor=none;fillColor=none;align=center;verticalAlign=middle;whiteSpace=wrap;rounded=0;" parent="1" vertex="1">
          <mxGeometry x="194" y="467" width="40" height="20" as="geometry" />
        </mxCell>
        <mxCell id="E3-DCWuAJKOkuyqkyLfo-261" style="edgeStyle=orthogonalEdgeStyle;rounded=0;orthogonalLoop=1;jettySize=auto;html=1;entryX=0;entryY=0.5;entryDx=0;entryDy=0;" parent="1" source="E3-DCWuAJKOkuyqkyLfo-226" target="E3-DCWuAJKOkuyqkyLfo-55" edge="1">
          <mxGeometry relative="1" as="geometry" />
        </mxCell>
        <mxCell id="E3-DCWuAJKOkuyqkyLfo-226" value="" style="ellipse;whiteSpace=wrap;html=1;aspect=fixed;" parent="1" vertex="1">
          <mxGeometry x="84" y="370" width="40" height="40" as="geometry" />
        </mxCell>
        <mxCell id="E3-DCWuAJKOkuyqkyLfo-232" value="" style="endArrow=none;html=1;entryX=1;entryY=0.5;entryDx=0;entryDy=0;exitX=0;exitY=0.5;exitDx=0;exitDy=0;" parent="1" source="E3-DCWuAJKOkuyqkyLfo-226" target="E3-DCWuAJKOkuyqkyLfo-226" edge="1">
          <mxGeometry width="50" height="50" relative="1" as="geometry">
            <mxPoint x="104" y="300" as="sourcePoint" />
            <mxPoint x="80" y="310" as="targetPoint" />
          </mxGeometry>
        </mxCell>
        <mxCell id="E3-DCWuAJKOkuyqkyLfo-235" value="" style="endArrow=none;html=1;exitX=0.5;exitY=1;exitDx=0;exitDy=0;entryX=0.5;entryY=0;entryDx=0;entryDy=0;" parent="1" source="E3-DCWuAJKOkuyqkyLfo-226" target="E3-DCWuAJKOkuyqkyLfo-226" edge="1">
          <mxGeometry width="50" height="50" relative="1" as="geometry">
            <mxPoint x="80" y="370" as="sourcePoint" />
            <mxPoint x="100" y="320" as="targetPoint" />
          </mxGeometry>
        </mxCell>
        <mxCell id="E3-DCWuAJKOkuyqkyLfo-260" style="edgeStyle=orthogonalEdgeStyle;rounded=0;orthogonalLoop=1;jettySize=auto;html=1;exitX=1;exitY=0.5;exitDx=0;exitDy=0;" parent="1" source="E3-DCWuAJKOkuyqkyLfo-239" target="E3-DCWuAJKOkuyqkyLfo-195" edge="1">
          <mxGeometry relative="1" as="geometry" />
        </mxCell>
        <mxCell id="E3-DCWuAJKOkuyqkyLfo-239" value="" style="ellipse;whiteSpace=wrap;html=1;aspect=fixed;" parent="1" vertex="1">
          <mxGeometry x="84" y="260" width="40" height="40" as="geometry" />
        </mxCell>
        <mxCell id="E3-DCWuAJKOkuyqkyLfo-240" value="" style="endArrow=none;html=1;entryX=1;entryY=0.5;entryDx=0;entryDy=0;exitX=0;exitY=0.5;exitDx=0;exitDy=0;" parent="1" source="E3-DCWuAJKOkuyqkyLfo-239" target="E3-DCWuAJKOkuyqkyLfo-239" edge="1">
          <mxGeometry width="50" height="50" relative="1" as="geometry">
            <mxPoint x="124" y="320" as="sourcePoint" />
            <mxPoint x="100" y="330" as="targetPoint" />
          </mxGeometry>
        </mxCell>
        <mxCell id="E3-DCWuAJKOkuyqkyLfo-241" value="" style="endArrow=none;html=1;exitX=0.5;exitY=1;exitDx=0;exitDy=0;entryX=0.5;entryY=0;entryDx=0;entryDy=0;" parent="1" source="E3-DCWuAJKOkuyqkyLfo-239" target="E3-DCWuAJKOkuyqkyLfo-239" edge="1">
          <mxGeometry width="50" height="50" relative="1" as="geometry">
            <mxPoint x="100" y="390" as="sourcePoint" />
            <mxPoint x="120" y="340" as="targetPoint" />
          </mxGeometry>
        </mxCell>
        <mxCell id="E3-DCWuAJKOkuyqkyLfo-262" style="edgeStyle=orthogonalEdgeStyle;rounded=0;orthogonalLoop=1;jettySize=auto;html=1;entryX=0;entryY=0.5;entryDx=0;entryDy=0;" parent="1" source="E3-DCWuAJKOkuyqkyLfo-242" target="E3-DCWuAJKOkuyqkyLfo-223" edge="1">
          <mxGeometry relative="1" as="geometry" />
        </mxCell>
        <mxCell id="E3-DCWuAJKOkuyqkyLfo-242" value="" style="ellipse;whiteSpace=wrap;html=1;aspect=fixed;" parent="1" vertex="1">
          <mxGeometry x="84" y="477" width="40" height="40" as="geometry" />
        </mxCell>
        <mxCell id="E3-DCWuAJKOkuyqkyLfo-243" value="" style="endArrow=none;html=1;entryX=1;entryY=0.5;entryDx=0;entryDy=0;exitX=0;exitY=0.5;exitDx=0;exitDy=0;" parent="1" source="E3-DCWuAJKOkuyqkyLfo-242" target="E3-DCWuAJKOkuyqkyLfo-242" edge="1">
          <mxGeometry width="50" height="50" relative="1" as="geometry">
            <mxPoint x="134" y="317" as="sourcePoint" />
            <mxPoint x="110" y="327" as="targetPoint" />
          </mxGeometry>
        </mxCell>
        <mxCell id="E3-DCWuAJKOkuyqkyLfo-244" value="" style="endArrow=none;html=1;exitX=0.5;exitY=1;exitDx=0;exitDy=0;entryX=0.5;entryY=0;entryDx=0;entryDy=0;" parent="1" source="E3-DCWuAJKOkuyqkyLfo-242" target="E3-DCWuAJKOkuyqkyLfo-242" edge="1">
          <mxGeometry width="50" height="50" relative="1" as="geometry">
            <mxPoint x="110" y="387" as="sourcePoint" />
            <mxPoint x="130" y="337" as="targetPoint" />
          </mxGeometry>
        </mxCell>
        <mxCell id="E3-DCWuAJKOkuyqkyLfo-254" value="" style="endArrow=classic;html=1;exitX=0.5;exitY=1;exitDx=0;exitDy=0;" parent="1" source="E3-DCWuAJKOkuyqkyLfo-9" edge="1">
          <mxGeometry width="50" height="50" relative="1" as="geometry">
            <mxPoint x="124" y="120" as="sourcePoint" />
            <mxPoint x="84" y="280" as="targetPoint" />
            <Array as="points">
              <mxPoint x="490" y="220" />
              <mxPoint x="70" y="220" />
              <mxPoint x="70" y="280" />
            </Array>
          </mxGeometry>
        </mxCell>
        <mxCell id="E3-DCWuAJKOkuyqkyLfo-255" value="" style="endArrow=classic;html=1;exitX=0.5;exitY=1;exitDx=0;exitDy=0;" parent="1" source="E3-DCWuAJKOkuyqkyLfo-12" edge="1">
          <mxGeometry width="50" height="50" relative="1" as="geometry">
            <mxPoint x="490" y="300" as="sourcePoint" />
            <mxPoint x="84" y="390" as="targetPoint" />
            <Array as="points">
              <mxPoint x="550" y="230" />
              <mxPoint x="50" y="230" />
              <mxPoint x="50" y="390" />
            </Array>
          </mxGeometry>
        </mxCell>
        <mxCell id="E3-DCWuAJKOkuyqkyLfo-256" value="" style="endArrow=classic;html=1;exitX=0.5;exitY=1;exitDx=0;exitDy=0;" parent="1" source="E3-DCWuAJKOkuyqkyLfo-10" edge="1">
          <mxGeometry width="50" height="50" relative="1" as="geometry">
            <mxPoint x="550" y="300" as="sourcePoint" />
            <mxPoint x="84" y="500" as="targetPoint" />
            <Array as="points">
              <mxPoint x="610" y="240" />
              <mxPoint x="30" y="240" />
              <mxPoint x="30" y="500" />
            </Array>
          </mxGeometry>
        </mxCell>
        <mxCell id="E3-DCWuAJKOkuyqkyLfo-259" value="" style="endArrow=classic;html=1;" parent="1" edge="1">
          <mxGeometry width="50" height="50" relative="1" as="geometry">
            <mxPoint x="314" y="193" as="sourcePoint" />
            <mxPoint x="104" y="260" as="targetPoint" />
            <Array as="points">
              <mxPoint x="314" y="210" />
              <mxPoint x="104" y="210" />
            </Array>
          </mxGeometry>
        </mxCell>
        <mxCell id="E3-DCWuAJKOkuyqkyLfo-263" value="satp.ppn * PAGESIZE+ VPN[2]*PTESIZE" style="text;html=1;strokeColor=none;fillColor=none;align=center;verticalAlign=middle;whiteSpace=wrap;rounded=0;" parent="1" vertex="1">
          <mxGeometry x="41" y="300" width="286" height="20" as="geometry" />
        </mxCell>
        <mxCell id="E3-DCWuAJKOkuyqkyLfo-264" value="pte1.ppn * PAGESIZE+ VPN[1]*PTESIZE" style="text;html=1;strokeColor=none;fillColor=none;align=center;verticalAlign=middle;whiteSpace=wrap;rounded=0;" parent="1" vertex="1">
          <mxGeometry x="30" y="410" width="286" height="20" as="geometry" />
        </mxCell>
        <mxCell id="E3-DCWuAJKOkuyqkyLfo-265" value="pte2.ppn * PAGESIZE+ VPN[0]*PTESIZE" style="text;html=1;strokeColor=none;fillColor=none;align=center;verticalAlign=middle;whiteSpace=wrap;rounded=0;" parent="1" vertex="1">
          <mxGeometry x="20" y="517" width="286" height="20" as="geometry" />
        </mxCell>
        <mxCell id="E3-DCWuAJKOkuyqkyLfo-266" value="pte1" style="text;html=1;strokeColor=none;fillColor=none;align=center;verticalAlign=middle;whiteSpace=wrap;rounded=0;" parent="1" vertex="1">
          <mxGeometry x="725" y="270" width="40" height="20" as="geometry" />
        </mxCell>
        <mxCell id="E3-DCWuAJKOkuyqkyLfo-267" value="pte2" style="text;html=1;strokeColor=none;fillColor=none;align=center;verticalAlign=middle;whiteSpace=wrap;rounded=0;" parent="1" vertex="1">
          <mxGeometry x="725" y="380" width="40" height="20" as="geometry" />
        </mxCell>
        <mxCell id="E3-DCWuAJKOkuyqkyLfo-268" value="pte3" style="text;html=1;strokeColor=none;fillColor=none;align=center;verticalAlign=middle;whiteSpace=wrap;rounded=0;" parent="1" vertex="1">
          <mxGeometry x="725" y="487" width="40" height="20" as="geometry" />
        </mxCell>
        <mxCell id="E3-DCWuAJKOkuyqkyLfo-269" value="page offset" style="rounded=0;whiteSpace=wrap;html=1;" parent="1" vertex="1">
          <mxGeometry x="470" y="557" width="90" height="20" as="geometry" />
        </mxCell>
        <mxCell id="E3-DCWuAJKOkuyqkyLfo-270" value="PPN[0]" style="rounded=0;whiteSpace=wrap;html=1;" parent="1" vertex="1">
          <mxGeometry x="410" y="557" width="60" height="20" as="geometry" />
        </mxCell>
        <mxCell id="E3-DCWuAJKOkuyqkyLfo-271" value="9" style="text;html=1;strokeColor=none;fillColor=none;align=center;verticalAlign=middle;whiteSpace=wrap;rounded=0;" parent="1" vertex="1">
          <mxGeometry x="420" y="577" width="40" height="20" as="geometry" />
        </mxCell>
        <mxCell id="E3-DCWuAJKOkuyqkyLfo-272" value="12" style="text;html=1;strokeColor=none;fillColor=none;align=center;verticalAlign=middle;whiteSpace=wrap;rounded=0;" parent="1" vertex="1">
          <mxGeometry x="495" y="577" width="40" height="17" as="geometry" />
        </mxCell>
        <mxCell id="E3-DCWuAJKOkuyqkyLfo-273" value="PPN[1]" style="rounded=0;whiteSpace=wrap;html=1;" parent="1" vertex="1">
          <mxGeometry x="350" y="557" width="60" height="20" as="geometry" />
        </mxCell>
        <mxCell id="E3-DCWuAJKOkuyqkyLfo-274" value="9" style="text;html=1;strokeColor=none;fillColor=none;align=center;verticalAlign=middle;whiteSpace=wrap;rounded=0;" parent="1" vertex="1">
          <mxGeometry x="360" y="577" width="40" height="20" as="geometry" />
        </mxCell>
        <mxCell id="E3-DCWuAJKOkuyqkyLfo-275" value="PPN[2]" style="rounded=0;whiteSpace=wrap;html=1;" parent="1" vertex="1">
          <mxGeometry x="290" y="557" width="60" height="20" as="geometry" />
        </mxCell>
        <mxCell id="E3-DCWuAJKOkuyqkyLfo-276" value="26" style="text;html=1;strokeColor=none;fillColor=none;align=center;verticalAlign=middle;whiteSpace=wrap;rounded=0;" parent="1" vertex="1">
          <mxGeometry x="300" y="577" width="40" height="20" as="geometry" />
        </mxCell>
        <mxCell id="E3-DCWuAJKOkuyqkyLfo-279" value="" style="endArrow=classic;html=1;entryX=1;entryY=0.5;entryDx=0;entryDy=0;exitX=1;exitY=0.5;exitDx=0;exitDy=0;" parent="1" source="E3-DCWuAJKOkuyqkyLfo-16" target="E3-DCWuAJKOkuyqkyLfo-269" edge="1">
          <mxGeometry width="50" height="50" relative="1" as="geometry">
            <mxPoint x="750" y="190" as="sourcePoint" />
            <mxPoint x="810" y="580" as="targetPoint" />
            <Array as="points">
              <mxPoint x="780" y="180" />
              <mxPoint x="780" y="570" />
            </Array>
          </mxGeometry>
        </mxCell>
        <mxCell id="E3-DCWuAJKOkuyqkyLfo-283" value="phisical address" style="text;html=1;strokeColor=none;fillColor=none;align=center;verticalAlign=middle;whiteSpace=wrap;rounded=0;" parent="1" vertex="1">
          <mxGeometry x="190" y="557" width="100" height="20" as="geometry" />
        </mxCell>
        <mxCell id="LQyN2fZaft3nYzOMAIvv-1" value="" style="endArrow=classic;html=1;" parent="1" edge="1">
          <mxGeometry width="50" height="50" relative="1" as="geometry">
            <mxPoint x="360" y="291" as="sourcePoint" />
            <mxPoint x="104" y="370" as="targetPoint" />
            <Array as="points">
              <mxPoint x="360" y="340" />
              <mxPoint x="104" y="340" />
            </Array>
          </mxGeometry>
        </mxCell>
        <mxCell id="LQyN2fZaft3nYzOMAIvv-2" value="" style="endArrow=classic;html=1;" parent="1" edge="1">
          <mxGeometry width="50" height="50" relative="1" as="geometry">
            <mxPoint x="360" y="400" as="sourcePoint" />
            <mxPoint x="104" y="479" as="targetPoint" />
            <Array as="points">
              <mxPoint x="360" y="449" />
              <mxPoint x="104" y="449" />
            </Array>
          </mxGeometry>
        </mxCell>
      </root>
    </mxGraphModel>
  </diagram>
</mxfile>
